<svg width="158" height="157" viewBox="0 0 158 157" fill="none" xmlns="http://www.w3.org/2000/svg">
<path d="M157.013 0.411621C72.5323 4.13035 4.58823 71.7505 0 156.291H38.8422C43.5636 93.6963 94.1034 43.8909 157.013 40.3231V0.411621Z" fill="#C4C4C4"/>
<path d="M37.7034 105.15L36.3062 103.848C37.651 102.914 38.5414 102.042 38.9774 101.231C39.4134 100.421 39.5778 99.7385 39.4706 99.1831C39.3635 98.6277 39.0186 98.2345 38.4361 98.0034C37.7916 97.7478 37.1319 97.8138 36.4571 98.2015C36.0821 98.4232 35.7882 98.62 35.5753 98.7921C35.3687 98.9523 35.0556 99.2128 34.6359 99.5735C34.2101 99.9175 33.8783 100.185 33.6404 100.375C33.3901 100.561 33.0649 100.774 32.6649 101.014C32.2588 101.238 31.8906 101.391 31.5604 101.474C30.7314 101.701 29.9018 101.649 29.0714 101.32C27.9188 100.863 27.1852 100.116 26.8707 99.0793C26.5626 98.031 26.7181 96.9315 27.3373 95.7809C27.7164 95.0764 28.2069 94.4446 28.8086 93.8854C29.4103 93.3262 29.9299 92.9197 30.3673 92.6658L31.6056 94.0118C30.3543 94.9117 29.5549 95.6845 29.2074 96.3303C28.8598 96.9761 28.7491 97.559 28.8753 98.0792C28.989 98.5945 29.3123 98.9578 29.8453 99.1692C30.4402 99.4052 31.0532 99.342 31.6843 98.9797C32.2092 98.6751 32.7441 98.296 33.289 97.8424C33.8338 97.3889 34.222 97.0728 34.4536 96.8939C34.6916 96.7033 35.0292 96.4811 35.4667 96.2272C35.9041 95.9733 36.2973 95.8015 36.6463 95.712C37.5435 95.498 38.4259 95.5631 39.2935 95.9072C40.5453 96.4037 41.2783 97.2074 41.4927 98.3182C41.7009 99.4124 41.4386 100.64 40.7056 102.002C39.9727 103.364 38.972 104.414 37.7034 105.15Z" fill="black"/>
<path d="M50.477 86.3043L49.175 88.0277L36.6011 79.703L37.6696 77.8249L45.274 82.8595L44.2325 76.6878L45.9999 74.7457L46.8153 80.7199L50.9487 80.6795C52.2468 80.6611 53.144 80.3454 53.6404 79.7325L54.9245 80.5826C54.8824 80.6824 54.7609 80.8653 54.56 81.1313C53.7483 82.2058 52.538 82.7372 50.9291 82.7254L46.971 82.6664L47.1584 84.1071L50.477 86.3043Z" fill="black"/>
<path d="M51.613 61.533C51.8463 61.2949 52.1192 61.1689 52.4316 61.1549C52.7344 61.1317 53.0347 61.2634 53.3326 61.5499C53.9572 62.1507 53.9522 62.7749 53.3176 63.4224C53.0936 63.651 52.8349 63.7721 52.5414 63.7858C52.2383 63.7903 51.9426 63.6538 51.6544 63.3765C51.0202 62.7665 51.0064 62.152 51.613 61.533ZM61.7695 72.8847L54.1735 65.5778L55.4836 63.841L63.2814 71.3421L61.7695 72.8847Z" fill="black"/>
<path d="M62.6383 51.3363L64.1345 49.74L71.4735 59.3099C72.2281 60.2939 72.878 60.5611 73.4233 60.1115C73.557 60.0013 73.7755 59.7607 74.0788 59.3897L75.18 60.3987C75.1697 60.4072 75.1356 60.4613 75.0776 60.5609C75.03 60.652 74.9669 60.7558 74.8883 60.8724C74.6961 61.1691 74.4147 61.4701 74.0444 61.7755C73.3346 62.3607 72.6233 62.55 71.9106 62.3432C71.1897 62.1258 70.4966 61.5833 69.8313 60.7158L62.6383 51.3363Z" fill="black"/>
<path d="M75.4414 41.5498L77.1094 40.116L82.9465 50.6693C83.5466 51.7544 84.1417 52.1025 84.7318 51.7135C84.8765 51.6182 85.1211 51.4012 85.4655 51.0627L86.399 52.2147C86.3878 52.222 86.3474 52.2726 86.2777 52.3663C86.2191 52.4526 86.1439 52.55 86.0519 52.6584C85.8252 52.9352 85.5115 53.2057 85.1107 53.4698C84.3426 53.9762 83.6264 54.082 82.9622 53.7875C82.2915 53.4813 81.6916 52.8498 81.1624 51.893L75.4414 41.5498Z" fill="black"/>
<path d="M92.9967 47.3631L92.866 45.6324C94.0062 45.5987 94.9287 45.4071 95.6334 45.0575C96.8518 44.4531 97.3068 43.7175 96.9985 42.8507C96.7573 42.1723 95.971 41.8973 94.6396 42.0258C94.1232 42.0751 93.7336 42.1058 93.4709 42.1178C93.2038 42.1174 92.8628 42.087 92.4479 42.0268C91.6301 41.9005 91.0604 41.385 90.7387 40.4805C90.4126 39.5634 90.4625 38.6963 90.8885 37.879C91.322 37.0433 92.0643 36.3647 93.1154 35.8432C94.1784 35.3159 95.1592 35.051 96.0576 35.0486C96.2233 35.0403 96.3121 35.0332 96.3241 35.0273L96.4906 36.7403C95.4757 36.7709 94.6279 36.955 93.947 37.2928C92.7526 37.8853 92.3073 38.6087 92.6111 39.463C92.7004 39.7142 92.8294 39.8793 92.998 39.9583C93.1741 40.0187 93.3091 40.0626 93.4031 40.0898C93.4926 40.1045 93.6366 40.1144 93.8351 40.1193C94.0292 40.1118 94.1687 40.109 94.2538 40.1112C94.3463 40.0948 94.5157 40.0773 94.762 40.0586C95.0083 40.0398 95.2545 40.0211 95.5008 40.0024C95.7546 39.9652 96.0255 39.9564 96.3135 39.9761C96.6135 39.9899 96.9432 40.0479 97.3029 40.1503C98.0221 40.3551 98.5559 40.9475 98.9044 41.9274C99.1412 42.5932 99.1526 43.2378 98.9387 43.8612C98.5677 44.9911 97.6118 45.9382 96.0709 46.7026C95.0437 47.2122 94.019 47.4324 92.9967 47.3631Z" fill="black"/>
<defs>
<style>
 svg path:nth-child(1) {
    transition: fill .2s linear;
}
svg:hover path:nth-child(1){
  fill:orange;
}
</style>
</defs>



</svg>
