<svg width="163" height="162" viewBox="0 0 163 162" fill="none" xmlns="http://www.w3.org/2000/svg">
<path d="M0 45.3215V5.41162C84.9442 8.63789 153.408 76.4578 158.014 161.332H118.966C114.225 98.4737 63.2784 48.5126 0 45.3215Z" fill="#C4C4C4"/>
<path d="M28.2614 34.2985L32.5673 20.5574L40.5257 23.0512L39.9695 24.8261L34.1868 23.0141L32.883 27.1746L37.9024 28.7474L37.3821 30.4078L32.3627 28.835L30.9932 33.2054L37.1577 35.1371L36.3343 36.8283L28.2614 34.2985Z" fill="black"/>
<path d="M51.2338 42.9723L49.1109 42.0366L48.1896 37.6308L44.4258 39.9716L42.3029 39.0358L47.7713 35.6542L46.4975 29.5193L48.5724 30.0185L49.5702 34.8953L53.7333 32.2933L55.5017 33.488L49.9805 36.8902L51.2338 42.9723Z" fill="black"/>
<path d="M55.8668 50.0991L61.9637 39.6938C62.3412 39.0496 62.6926 38.2124 63.0181 37.1822L64.5788 37.8418L64.4445 38.783C65.6531 38.6721 66.7175 38.8863 67.6378 39.4255C68.8112 40.1131 69.4788 41.0837 69.6404 42.3375C69.8089 43.5797 69.4617 44.9371 68.5989 46.4096C67.7428 47.8706 66.6986 48.8351 65.4664 49.303C64.2341 49.7709 62.9967 49.6408 61.7543 48.9128C61.0065 48.4747 60.4303 47.9284 60.0256 47.274L57.7304 51.1911L55.8668 50.0991ZM66.3226 40.602C65.7819 40.2852 65.0647 40.1509 64.1711 40.1991L60.8749 45.8245C61.1531 46.4048 61.6028 46.8769 62.224 47.2409C63.0753 47.7397 63.8492 47.83 64.5456 47.5117C65.242 47.1935 65.9509 46.4189 66.6721 45.188C67.3934 43.957 67.7024 42.9945 67.5991 42.3004C67.4958 41.6063 67.0703 41.0402 66.3226 40.602Z" fill="black"/>
<path d="M79.9257 58.2301L79.6996 59.7618C79.3902 59.796 78.8584 59.7046 78.104 59.4876C77.3496 59.2705 76.6368 58.9095 75.9655 58.4046C74.7721 57.507 74.0802 56.4193 73.89 55.1417C73.7104 53.8721 74.1656 52.5128 75.2556 51.0636C75.8568 50.2644 76.5136 49.6574 77.2262 49.2423C77.9468 48.8167 78.6377 48.5856 79.2991 48.5492C80.6432 48.4924 81.7681 48.8046 82.6738 49.4859C83.5902 50.1751 84.1385 50.9546 84.3186 51.8241C84.5174 52.6911 84.3643 53.4602 83.8594 54.1315C83.1942 55.0159 82.2283 55.4239 80.9617 55.3555C79.7032 55.2764 78.1468 54.5396 76.2928 53.1451C75.9241 53.6352 75.7619 54.2723 75.8061 55.0564C75.861 55.8485 76.2881 56.545 77.0872 57.1462C77.8971 57.7553 78.8432 58.1166 79.9257 58.2301ZM82.2008 53.1092C82.4413 52.7895 82.5271 52.4203 82.4584 52.0016C82.4083 51.5802 82.1648 51.2052 81.7279 50.8766C81.0246 50.3476 80.2435 50.1772 79.3846 50.3653C78.5444 50.5508 77.7983 51.0658 77.1465 51.9102C79.6825 53.8177 81.3673 54.2174 82.2008 53.1092Z" fill="black"/>
<path d="M90.1667 60.3289C90.9843 59.4505 91.6323 58.5783 92.1107 57.7121L93.4903 58.6957L92.9705 59.9879C94.2576 59.8381 95.2867 60.122 96.0577 60.8397C96.5749 61.3212 96.8615 61.8157 96.9174 62.3231C96.9831 62.8396 96.807 63.3224 96.3891 63.7713C95.9712 64.2202 95.53 64.5473 95.0657 64.7526L93.9566 63.4197C94.3654 62.9805 94.6077 62.6322 94.6834 62.3748C94.7779 62.1167 94.6934 61.865 94.4299 61.6197C94.1762 61.3835 93.827 61.2498 93.3825 61.2185C92.9478 61.1963 92.5391 61.244 92.1565 61.3614L86.7874 67.1292L85.2064 65.6575L90.1667 60.3289Z" fill="black"/>
<path d="M107.753 66.744C107.975 66.9924 108.082 67.2722 108.074 67.5834C108.076 67.8857 107.923 68.1746 107.615 68.4503C106.97 69.0282 106.344 68.9793 105.74 68.3037C105.526 68.0652 105.423 67.7998 105.43 67.5075C105.447 67.2063 105.604 66.9223 105.902 66.6555C106.558 66.0687 107.175 66.0982 107.753 66.744ZM95.6654 76.0306L103.52 69.002L105.169 70.4249L97.1058 77.6402L95.6654 76.0306Z" fill="black"/>
<path d="M109.234 89.2579L108.579 90.6606C108.272 90.6048 107.789 90.3649 107.128 89.9408C106.468 89.5168 105.888 88.9667 105.39 88.2906C104.504 87.0887 104.152 85.8485 104.336 84.5699C104.528 83.3021 105.353 82.1301 106.813 81.054C107.618 80.4605 108.421 80.067 109.222 79.8735C110.035 79.6721 110.763 79.6487 111.407 79.8033C112.711 80.1339 113.699 80.7553 114.372 81.6674C115.052 82.5903 115.354 83.4941 115.278 84.3789C115.22 85.2664 114.853 85.9595 114.177 86.458C113.286 87.1148 112.244 87.229 111.05 86.8006C109.867 86.3643 108.587 85.2125 107.21 83.3453C106.716 83.7093 106.378 84.2732 106.196 85.0371C106.022 85.8117 106.232 86.6014 106.825 87.4063C107.426 88.2218 108.229 88.8391 109.234 89.2579ZM112.881 85.0034C113.203 84.766 113.391 84.4369 113.445 84.016C113.518 83.5979 113.392 83.1688 113.067 82.7288C112.545 82.0206 111.845 81.6335 110.969 81.5678C110.11 81.5048 109.248 81.7844 108.382 82.4068C110.265 84.9608 111.765 85.8264 112.881 85.0034Z" fill="black"/>
<path d="M118.5 94.2219C119.541 93.6252 120.418 92.9839 121.131 92.2983L122.158 93.6464L121.479 94.4734C122.719 95.0538 123.63 95.853 124.214 96.871C125.421 98.9763 124.89 100.679 122.623 101.978L116.55 105.46L115.476 103.586L121.202 100.303C122.729 99.4281 123.144 98.3832 122.448 97.1686C122.043 96.463 121.404 95.923 120.528 95.5488L113.258 99.7164L112.184 97.8424L118.5 94.2219Z" fill="black"/>
<path d="M121.729 116.947C121.129 115.55 121.144 114.267 121.773 113.097C122.403 111.927 123.459 111.024 124.941 110.387C126.436 109.745 127.841 109.62 129.156 110.013C130.483 110.401 131.454 111.312 132.07 112.745C132.586 113.946 132.802 115.159 132.719 116.384L131.141 116.409C131.163 115.413 131.016 114.547 130.7 113.812C130.279 112.832 129.641 112.243 128.787 112.044C127.938 111.857 127.023 111.974 126.043 112.395C123.544 113.468 122.71 114.973 123.541 116.909C123.851 117.631 124.383 118.295 125.136 118.901L124.126 120.096C123.133 119.405 122.334 118.356 121.729 116.947Z" fill="black"/>
<path d="M130.469 134.047L129.385 135.153C129.115 134.999 128.738 134.613 128.256 133.994C127.773 133.375 127.408 132.664 127.162 131.861C126.724 130.433 126.804 129.146 127.401 128.001C128.002 126.868 129.17 126.036 130.903 125.505C131.859 125.211 132.748 125.106 133.568 125.189C134.401 125.269 135.096 125.488 135.652 125.847C136.773 126.591 137.5 127.505 137.832 128.589C138.168 129.685 138.153 130.638 137.788 131.447C137.439 132.265 136.863 132.798 136.06 133.044C135.002 133.368 133.981 133.131 132.996 132.331C132.025 131.527 131.199 130.016 130.519 127.798C129.932 127.978 129.427 128.398 129.001 129.058C128.58 129.731 128.516 130.546 128.809 131.502C129.106 132.471 129.66 133.319 130.469 134.047ZM135.319 131.242C135.702 131.125 135.988 130.876 136.179 130.497C136.386 130.127 136.409 129.68 136.249 129.158C135.991 128.316 135.459 127.719 134.654 127.367C133.865 127.023 132.959 127.001 131.935 127.301C132.865 130.335 133.994 131.648 135.319 131.242Z" fill="black"/>
<defs>
<style>
svg:hover path:nth-child(1){
  fill:orange;
}
</style>
</defs>
</svg>
