<svg width="159" height="165" viewBox="0 0 159 165" fill="none" xmlns="http://www.w3.org/2000/svg">
<path d="M0 121.795C65.0712 118.513 117.102 65.7739 119.257 0.411621H158.196C155.782 87.3484 86.4202 157.489 0 160.771V121.795Z" fill="#C4C4C4"/>
<path d="M27.2782 137.453C26.3827 134.575 26.6801 132.256 28.1703 130.493C28.9525 129.551 30.0565 128.859 31.4823 128.415C32.8955 127.975 34.2972 127.79 35.6875 127.86C35.8728 127.872 35.9718 127.876 35.9845 127.872L35.9538 129.725C35.941 129.729 35.846 129.738 35.6686 129.751C35.5 129.748 35.327 129.753 35.1496 129.766C34.981 129.763 34.7614 129.775 34.4909 129.804C34.2205 129.832 33.9647 129.863 33.7237 129.896C33.1827 129.952 32.6258 130.07 32.0529 130.248C30.6271 130.692 29.7079 131.418 29.2956 132.426C28.8959 133.43 28.9913 134.881 29.5817 136.778C30.2513 138.929 31.0746 140.251 32.0516 140.743C32.5484 140.993 33.0478 141.117 33.5497 141.114C34.0516 141.112 34.6272 141.009 35.2765 140.807C36.4605 140.439 37.6412 139.813 38.8186 138.93L39.9132 140.495L39.4643 140.803C38.2241 141.663 36.8783 142.32 35.4269 142.771C33.53 143.362 31.8778 143.213 30.4701 142.324C29.0752 141.432 28.0113 139.808 27.2782 137.453Z" fill="black"/>
<path d="M47.8193 126.118C49.0106 125.581 50.1842 125.557 51.3401 126.045C52.4906 126.521 53.4301 127.567 54.1587 129.184C54.8872 130.801 55.0639 132.264 54.6889 133.574C54.3205 134.866 53.3401 135.871 51.7476 136.588C50.5563 137.125 49.3827 137.15 48.2267 136.661C47.0653 136.161 46.1203 135.102 45.3918 133.486C44.6633 131.869 44.4859 130.42 44.8598 129.141C45.2403 127.843 46.2268 126.835 47.8193 126.118ZM47.4787 132.567C48.0265 133.783 48.6214 134.568 49.2636 134.922C49.9125 135.258 50.6441 135.243 51.4586 134.876C52.2731 134.509 52.7141 133.93 52.7818 133.139C52.8617 132.343 52.6277 131.337 52.0799 130.121C51.5267 128.893 50.9284 128.117 50.285 127.793C49.6483 127.451 48.9714 127.441 48.2542 127.765C47.3424 128.175 46.8439 128.773 46.7586 129.557C46.6854 130.336 46.9255 131.339 47.4787 132.567Z" fill="black"/>
<path d="M60.3112 123.964C59.6926 122.936 59.033 122.072 58.3325 121.373L59.6586 120.319L60.4997 120.98C61.0539 119.728 61.8337 118.8 62.8391 118.195C64.9185 116.944 66.6318 117.438 67.979 119.678L71.5875 125.676L69.7367 126.789L66.3343 121.134C65.427 119.626 64.3736 119.233 63.1739 119.954C62.477 120.374 61.9507 121.025 61.595 121.908L65.915 129.088L64.0641 130.202L60.3112 123.964Z" fill="black"/>
<path d="M72.1968 109.639L73.4173 108.435L75.0749 110.617L77.5433 108.742L78.2233 110.033L75.946 111.764L79.1886 116.032C79.6241 116.605 80.0277 116.96 80.3992 117.096C80.7733 117.214 81.1461 117.131 81.5177 116.849C81.8893 116.567 82.2764 116.206 82.679 115.766L83.7693 116.771C83.2643 117.473 82.7039 118.058 82.0881 118.526C81.2282 119.179 80.4443 119.415 79.7365 119.232C79.0393 119.042 78.3721 118.527 77.7348 117.689L74.2261 113.07L73.0317 113.978L72.2816 112.99L73.355 111.924L72.1968 109.639Z" fill="black"/>
<path d="M89.5621 98.4438L94.7034 103.877C95.0242 104.216 95.2783 104.407 95.4657 104.45C95.644 104.483 95.8833 104.357 96.1835 104.073L97.1076 104.933C96.948 105.25 96.7326 105.536 96.4614 105.793C95.7061 106.508 94.9304 106.59 94.1344 106.04C94.3543 107.3 93.9607 108.407 92.9535 109.36C91.956 110.304 90.8574 110.637 89.6579 110.359C88.468 110.071 87.3186 109.341 86.2097 108.17C85.0916 106.988 84.5001 105.694 84.4352 104.287C84.3611 102.87 84.8857 101.63 86.0091 100.567C86.4643 100.136 87.0608 99.7093 87.7987 99.2864C88.5372 98.8446 89.125 98.5637 89.5621 98.4438ZM87.9757 106.719C88.8646 107.658 89.6466 108.203 90.3215 108.354C91.0061 108.495 91.6196 108.309 92.1619 107.796C92.7043 107.283 92.9468 106.696 92.8896 106.034C92.833 105.353 92.5388 104.732 92.0073 104.17L88.7081 100.684C88.2112 100.915 87.7207 101.26 87.2365 101.718C86.5005 102.415 86.215 103.19 86.3801 104.043C86.5549 104.888 87.0867 105.779 87.9757 106.719Z" fill="black"/>
<path d="M106.053 95.5584C105.076 96.7228 103.923 97.2874 102.595 97.2522C101.267 97.217 99.9851 96.6808 98.7492 95.6438C97.5031 94.5983 96.7594 93.3999 96.5182 92.0487C96.2667 90.6889 96.6423 89.4115 97.645 88.2165C98.4849 87.2155 99.4707 86.4762 100.602 85.9986L101.335 87.3967C100.436 87.8256 99.729 88.3464 99.2148 88.9593C98.5292 89.7764 98.2899 90.6113 98.497 91.4638C98.7127 92.3062 99.2291 93.0702 100.046 93.7558C102.13 95.5042 103.849 95.5714 105.203 93.9576C105.709 93.355 106.062 92.5811 106.263 91.636L107.786 91.9997C107.616 93.1975 107.038 94.3838 106.053 95.5584Z" fill="black"/>
<path d="M103.31 77.697L104.083 76.1672L106.35 77.707L108.092 75.1428L109.148 76.1506L107.541 78.5163L111.975 81.5284C112.57 81.933 113.066 82.1408 113.461 82.1516C113.853 82.144 114.18 81.9471 114.443 81.5611C114.705 81.1751 114.957 80.7095 115.198 80.1643L116.552 80.7697C116.297 81.5959 115.952 82.3288 115.518 82.9684C114.911 83.8618 114.243 84.3348 113.514 84.3876C112.792 84.4294 111.996 84.1543 111.125 83.5623L106.327 80.3029L105.484 81.5437L104.458 80.8468L105.136 79.4937L103.31 77.697Z" fill="black"/>
<path d="M119.863 60.6448C118.755 60.184 117.711 59.8802 116.733 59.7332L117.175 58.0975L118.244 58.1306C117.953 56.7821 118.035 55.5599 118.49 54.4642C118.951 53.3562 119.646 52.6921 120.575 52.4719C120.276 51.1778 120.361 49.9644 120.832 48.8317C121.308 47.6868 121.953 46.9873 122.766 46.7334C123.585 46.4672 124.597 46.5849 125.803 47.0866L132.267 49.7742L131.438 51.7686L125.343 49.2346C124.149 48.738 123.287 48.7115 122.756 49.155C122.518 49.3449 122.32 49.6307 122.161 50.0123C121.895 50.6525 121.875 51.4818 122.101 52.5001C122.514 52.5849 122.941 52.7194 123.385 52.9037L129.848 55.5913L129.019 57.5858L122.925 55.0518C122.161 54.7344 121.516 54.603 120.987 54.6578C120.459 54.7125 120.047 55.0969 119.75 55.811C119.453 56.5251 119.428 57.3307 119.676 58.228L127.414 61.4454L126.585 63.4399L119.863 60.6448Z" fill="black"/>
<path d="M134.692 33.248L136.196 32.8809C136.344 33.1546 136.46 33.6818 136.543 34.4624C136.626 35.243 136.559 36.0392 136.344 36.8512C135.962 38.2948 135.215 39.3452 134.103 40.0024C132.994 40.6467 131.564 40.7367 129.811 40.2724C128.844 40.0163 128.034 39.6363 127.382 39.1324C126.716 38.6251 126.242 38.0719 125.959 37.4729C125.4 36.2491 125.266 35.0894 125.556 33.9938C125.85 32.8854 126.366 32.084 127.104 31.5898C127.832 31.0793 128.602 30.9315 129.414 31.1466C130.484 31.43 131.225 32.1712 131.639 33.3704C132.039 34.5661 131.943 36.2853 131.349 38.528C131.941 38.685 132.593 38.5955 133.302 38.2593C134.016 37.9103 134.5 37.2524 134.756 36.2858C135.016 35.3062 134.994 34.2936 134.692 33.248ZM129.091 33.068C128.705 32.9656 128.33 33.0251 127.968 33.2464C127.597 33.4514 127.341 33.8182 127.201 34.3466C126.976 35.1973 127.112 35.9851 127.609 36.71C128.098 37.4186 128.855 37.9159 129.883 38.2019C130.696 35.1344 130.432 33.4231 129.091 33.068Z" fill="black"/>
<defs>
<style>
svg:hover path:nth-child(1){
  fill:orange;
}
</style>
</defs>
</svg>
