<svg width="158" height="161" viewBox="0 0 158 161" fill="none" xmlns="http://www.w3.org/2000/svg">
<path d="M38.7333 0.411621C40.8797 65.5074 92.4955 118.083 157.195 121.752V160.73C71.2407 156.946 2.40481 87.0125 0 0.411621H38.7333Z" fill="#C4C4C4"/>
<path d="M24.8539 43.2404L39.7284 43.0746C40.0279 43.0832 40.2369 43.2574 40.3554 43.5974C40.4037 43.7359 40.6008 44.4226 40.9466 45.6576L28.9227 54.9115L28.1524 52.7019L31.6904 50.0918L30.0247 45.3138L25.6374 45.4877L24.8539 43.2404ZM31.9021 45.2312L33.2057 48.9704L38.6662 44.9488L38.5528 44.9883L31.9021 45.2312Z" fill="black"/>
<path d="M32.9755 62.4054L45.8021 55.9489L47.0234 57.7523L42.4858 60.0364C43.2626 60.6306 43.8758 61.3743 44.3254 62.2675C44.865 63.3394 44.8918 64.4305 44.4058 65.5409C43.9258 66.6632 42.8998 67.62 41.3277 68.4114C39.7557 69.2027 38.3133 69.4362 37.0006 69.1117C35.6939 68.7992 34.6478 67.8629 33.8625 66.3027C33.5688 65.7191 33.3403 65.043 33.1773 64.2742C33.0321 63.5113 32.9648 62.8884 32.9755 62.4054ZM40.3026 66.3748C41.4936 65.7753 42.2521 65.1472 42.5783 64.4904C42.9105 63.8455 42.8968 63.1658 42.5371 62.4512C42.1774 61.7366 41.6839 61.1715 41.0567 60.7558L34.822 63.8941C34.871 64.377 35.0574 64.94 35.3811 65.5831C35.8727 66.5597 36.5181 67.0856 37.3173 67.161C38.1285 67.2304 39.1235 66.9683 40.3026 66.3748Z" fill="black"/>
<path d="M52.5356 76.2522C53.2627 77.3379 53.4815 78.4912 53.192 79.7122C52.9136 80.9257 52.0377 82.0259 50.5643 83.0128C49.0909 83.9996 47.6774 84.4168 46.3236 84.2644C44.9883 84.1157 43.8346 83.3157 42.8626 81.8645C42.1354 80.7789 41.9166 79.6256 42.2061 78.4046C42.5067 77.1762 43.3937 76.0686 44.8671 75.0817C46.3404 74.0949 47.7392 73.6795 49.0635 73.8357C50.4062 73.9955 51.5636 74.801 52.5356 76.2522ZM46.1193 76.9872C45.0115 77.7292 44.3363 78.4462 44.0937 79.1383C43.8696 79.834 44.0061 80.5529 44.5033 81.2952C45.0004 82.0374 45.6446 82.3762 46.4358 82.3117C47.2345 82.2582 48.1877 81.8604 49.2955 81.1184C50.4144 80.369 51.0803 79.6502 51.2933 78.9619C51.5248 78.2772 51.4217 77.6081 50.9839 76.9545C50.4274 76.1237 49.7554 75.7313 48.9678 75.7774C48.1877 75.8345 47.2381 76.2378 46.1193 76.9872Z" fill="black"/>
<path d="M64.8213 92.1054L58.5333 97.5537C58.1706 97.868 57.9737 98.1092 57.9428 98.2771C57.9206 98.4551 58.0405 98.6953 58.3025 98.9976L57.4026 99.8831C57.0936 99.7098 56.8169 99.4821 56.5724 99.1999C56.0398 98.5852 55.9062 97.9424 56.1716 97.2713C55.0297 97.114 54.0309 96.5416 53.1752 95.5541C51.5861 93.7201 51.7791 91.9474 53.7542 90.2361L58.9387 85.7439L60.5648 87.1929L55.4709 91.6066C54.1408 92.7591 53.9341 93.8644 54.8509 94.9225C55.4796 95.648 56.1801 96.029 56.9526 96.0653L63.1952 90.6563L64.8213 92.1054Z" fill="black"/>
<path d="M72.8739 97.3767L74.2741 98.3656L72.4193 100.382L74.701 102.481L73.5495 103.378L71.4445 101.442L67.816 105.387C67.3286 105.917 67.0506 106.377 66.982 106.767C66.9322 107.156 67.079 107.508 67.4225 107.824C67.766 108.14 68.1897 108.457 68.6937 108.776L67.8968 110.027C67.1168 109.653 66.4423 109.205 65.8731 108.682C65.0781 107.951 64.7079 107.221 64.7624 106.492C64.8266 105.772 65.2153 105.024 65.9283 104.249L69.8546 99.98L68.7506 98.9646L69.59 98.0519L70.8294 98.9201L72.8739 97.3767Z" fill="black"/>
<path d="M87.3285 116.169C87.9366 115.135 88.3803 114.143 88.6599 113.194L90.2197 113.855L90.0406 114.91C91.4163 114.806 92.6157 115.055 93.6387 115.656C94.6733 116.264 95.236 117.043 95.327 117.994C96.6499 117.874 97.8402 118.125 98.8977 118.747C99.9667 119.375 100.571 120.109 100.712 120.949C100.863 121.796 100.608 122.783 99.9462 123.91L96.3993 129.945L94.5371 128.85L97.8813 123.16C98.5366 122.045 98.6809 121.194 98.3143 120.608C98.1587 120.346 97.9028 120.111 97.5464 119.901C96.9487 119.55 96.13 119.417 95.0903 119.501C94.9498 119.898 94.758 120.304 94.5148 120.718L90.9679 126.752L89.1057 125.658L92.4499 119.968C92.8687 119.255 93.0872 118.634 93.1053 118.103C93.1233 117.572 92.799 117.111 92.1323 116.719C91.4656 116.327 90.6708 116.193 89.7481 116.315L85.502 123.54L83.6398 122.446L87.3285 116.169Z" fill="black"/>
<path d="M112.478 134.531L112.646 136.071C112.355 136.182 111.817 136.227 111.032 136.208C110.248 136.188 109.467 136.019 108.69 135.699C107.308 135.132 106.365 134.254 105.858 133.066C105.364 131.882 105.462 130.452 106.151 128.775C106.531 127.85 107.013 127.097 107.598 126.515C108.188 125.922 108.798 125.524 109.429 125.322C110.715 124.928 111.883 124.946 112.931 125.377C113.992 125.812 114.719 126.428 115.112 127.224C115.524 128.013 115.569 128.796 115.25 129.573C114.83 130.597 113.998 131.235 112.755 131.488C111.517 131.729 109.825 131.409 107.68 130.527C107.446 131.095 107.45 131.752 107.691 132.5C107.944 133.252 108.533 133.819 109.458 134.199C110.395 134.584 111.402 134.695 112.478 134.531ZM113.387 129.002C113.539 128.632 113.529 128.253 113.357 127.865C113.202 127.47 112.872 127.169 112.367 126.961C111.553 126.627 110.754 126.659 109.97 127.058C109.204 127.449 108.612 128.136 108.194 129.117C111.129 130.323 112.86 130.285 113.387 129.002Z" fill="black"/>
<defs>
<style>
svg:hover path:nth-child(1){
  fill:orange;
}
</style>
</defs>
</svg>
